# xmcd
#
# Track frame offsets: 
#        150
#        19929
#        29498
#        43865
#        59804
#        74295
#        86354
#        100723
#        117592
#        133811
#
# Disc length: 2149 seconds
#
# Revision: 0
# Processed by: cddbd v1.5.2PL0 Copyright (c) Steve Scherf et al.
# Submitted via: ExactAudioCopy v1.3
#
DISCID=9108630a
DTITLE=Jeramy Norris and The Dangerous Mood - Deep In My Soul
DYEAR=2019
DGENRE=Blues Rock
TTITLE0=She Said
TTITLE1=The Dangerous Boogie
TTITLE2=Deep In My Soul
TTITLE3=Jiggle It
TTITLE4=The Messenger
TTITLE5=Blue On You
TTITLE6=My Clutch Is Slippin
TTITLE7=Bread Crumbs
TTITLE8=I Love My Girl
TTITLE9=Tired Of Trying
EXTD=
EXTT0=
EXTT1=
EXTT2=
EXTT3=
EXTT4=
EXTT5=
EXTT6=
EXTT7=
EXTT8=
EXTT9=
PLAYORDER=
